<?xml version="1.0" encoding="UTF-8"?>
<!DOCTYPE svg PUBLIC "-//W3C//DTD SVG 1.1//EN" "http://www.w3.org/Graphics/SVG/1.1/DTD/svg11.dtd">
<!-- Creator: CorelDRAW X7 -->
<svg xmlns="http://www.w3.org/2000/svg" xml:space="preserve" width="230mm" height="70mm" version="1.1" style="shape-rendering:geometricPrecision; text-rendering:geometricPrecision; image-rendering:optimizeQuality; fill-rule:evenodd; clip-rule:evenodd"
viewBox="0 0 23000 7000"
 xmlns:xlink="http://www.w3.org/1999/xlink">
 <defs>
  <style type="text/css">
   <![CDATA[
    .str0 {stroke:white;stroke-width:20}
    .str1 {stroke:white;stroke-width:20}
    .fil0 {fill:#E37314}
    .fil1 {fill:#00ADAA;fill-rule:nonzero}
   ]]>
  </style>
 </defs>
 <g id="Logo">
  <metadata id="CorelCorpID_0Corel-Layer"/>
  <g id="StickmanRight">
   <path id="Right_x0020_Arm" class="fil0 str0" d="M13311 1967l0 0c105,147 70,354 -77,459l-1483 1058c-148,105 -355,71 -460,-77l0 0c-105,-147 -71,-354 77,-460l1483 -1057c147,-106 354,-71 460,77z"/>
   <path id="Right_x0020_Upper_x0020_Body" class="fil0 str0" d="M13042 1828l0 0c181,0 330,149 330,330l0 3955c0,181 -149,329 -330,329l0 0c-181,0 -329,-148 -329,-329l0 -3955c0,-181 148,-330 329,-330z"/>
   <path id="Right_x0020_Head" class="fil0 str0" d="M13027 737c264,0 478,214 478,478 0,264 -214,478 -478,478 -264,0 -478,-214 -478,-478 0,-264 214,-478 478,-478z"/>
  </g>
  <g id="StickmanLeft">
   <path id="Left_x0020_Upper_x0020_Body" class="fil0 str0" d="M10076 1828l0 0c181,0 330,149 330,330l0 3955c0,181 -149,329 -330,329l0 0c-181,0 -330,-148 -330,-329l0 -3955c0,-181 149,-330 330,-330z"/>
   <path id="Left_x0020_Arm" class="fil0 str0" d="M9808 1967l0 0c105,-148 312,-183 459,-77l1483 1057c148,106 183,313 77,460l0 0c-105,148 -312,182 -459,77l-1483 -1058c-148,-105 -183,-312 -77,-459z"/>
   <path id="Left_x0020_Head" class="fil0 str0" d="M10097 737c264,0 478,214 478,478 0,264 -214,478 -478,478 -264,0 -478,-214 -478,-478 0,-264 214,-478 478,-478z"/>
  </g>
  <path id="Text" class="fil1 str1" d="M1365 4080l471 0c229,0 403,-46 524,-140 121,-94 181,-236 181,-426 0,-191 -60,-325 -181,-403 -121,-78 -295,-116 -524,-116l-471 0 0 1085zm1219 1653l-710 -1267 -509 0 0 1267 -477 0 0 -3119 1005 0c162,0 311,15 448,45 136,30 255,81 355,152 100,72 178,165 233,279 56,114 83,255 83,424 0,241 -59,435 -178,581 -119,146 -279,249 -479,309l767 1329 -538 0zm2152 57c-177,0 -341,-38 -490,-114 -149,-76 -278,-184 -386,-324 -108,-140 -191,-310 -250,-512 -59,-202 -88,-428 -88,-679 0,-250 29,-475 88,-673 59,-199 142,-367 250,-505 108,-138 237,-244 386,-317 149,-73 313,-110 490,-110 178,0 342,37 491,110 149,73 277,179 383,317 107,138 190,306 250,505 61,198 91,423 91,673 0,251 -30,477 -91,679 -60,202 -143,372 -250,512 -106,140 -234,248 -383,324 -149,76 -313,114 -491,114zm0 -414c108,0 207,-29 296,-86 89,-57 165,-139 228,-245 64,-107 113,-234 148,-384 35,-149 52,-315 52,-500 0,-371 -66,-662 -197,-874 -132,-211 -307,-316 -527,-316 -219,0 -394,105 -526,316 -132,212 -197,503 -197,874 0,185 17,351 52,500 35,150 84,277 148,384 63,106 139,188 228,245 89,57 187,86 295,86zm2858 414c-178,0 -341,-38 -491,-114 -149,-76 -277,-184 -385,-324 -108,-140 -192,-310 -250,-512 -59,-202 -88,-428 -88,-679 0,-250 29,-475 88,-673 58,-199 142,-367 250,-505 108,-138 236,-244 385,-317 150,-73 313,-110 491,-110 178,0 341,37 490,110 150,73 278,179 384,317 106,138 190,306 250,505 60,198 90,423 90,673 0,251 -30,477 -90,679 -60,202 -144,372 -250,512 -106,140 -234,248 -384,324 -149,76 -312,114 -490,114zm0 -414c108,0 206,-29 295,-86 89,-57 165,-139 229,-245 63,-107 113,-234 147,-384 35,-149 53,-315 53,-500 0,-371 -66,-662 -198,-874 -132,-211 -307,-316 -526,-316 -219,0 -395,105 -526,316 -132,212 -198,503 -198,874 0,185 18,351 52,500 35,150 85,277 148,384 64,106 140,188 229,245 89,57 187,86 295,86zm6937 -43l762 0 0 -2319 -762 0 0 -400 2001 0 0 400 -762 0 0 2319 762 0 0 400 -2001 0 0 -400zm2953 -2719l1957 0 0 400 -1481 0 0 890 1253 0 0 400 -1253 0 0 1029 1529 0 0 400 -2005 0 0 -3119zm2910 2390c121,111 256,201 407,269 151,69 307,103 469,103 207,0 365,-41 474,-124 110,-83 164,-194 164,-333 0,-70 -13,-131 -40,-181 -27,-51 -64,-95 -112,-131 -48,-37 -105,-69 -171,-98 -67,-29 -140,-59 -219,-90l-439 -196c-79,-31 -158,-70 -238,-116 -79,-46 -151,-102 -214,-167 -64,-65 -115,-141 -155,-229 -40,-87 -59,-188 -59,-302 0,-121 25,-233 76,-338 51,-105 123,-195 217,-272 93,-76 204,-135 333,-178 128,-43 271,-65 426,-65 194,0 375,35 543,105 168,70 313,165 433,286l-247 305c-102,-89 -211,-158 -329,-207 -117,-50 -251,-74 -400,-74 -178,0 -317,36 -419,109 -102,73 -152,173 -152,300 0,70 15,129 45,177 30,47 71,89 121,126 51,36 109,68 174,95 65,27 133,55 203,83l423 186c99,38 189,82 272,131 82,49 155,106 217,172 61,65 110,141 145,228 35,87 52,188 52,303 0,123 -25,241 -76,352 -51,111 -125,208 -224,290 -98,83 -217,148 -357,196 -140,47 -298,71 -476,71 -226,0 -435,-40 -629,-121 -194,-81 -365,-195 -514,-341l276 -324z"/>
 </g>
</svg>
